<mxfile host="app.diagrams.net" modified="2023-07-25T12:52:28.939Z" agent="Mozilla/5.0 (iPad; CPU OS 16_5 like Mac OS X) AppleWebKit/605.1.15 (KHTML, like Gecko) CriOS/115.0.5790.130 Mobile/15E148 Safari/604.1" etag="sYIJ2_ouoVbTH-AV5w2R" version="21.6.5" type="github">
  <diagram name="Page-1" id="vSrCb_kLTDOROECXCgQy">
    <mxGraphModel dx="283" dy="177" grid="1" gridSize="10" guides="1" tooltips="1" connect="1" arrows="1" fold="1" page="0" pageScale="1" pageWidth="827" pageHeight="1169" math="0" shadow="0">
      <root>
        <mxCell id="0" />
        <mxCell id="1" parent="0" />
        <mxCell id="twXCrVw1hiwDpGXirVnP-16" value="" style="rounded=0;whiteSpace=wrap;html=1;fontSize=16;dashed=1;fillColor=#f5f5f5;fontColor=#333333;strokeColor=#666666;" vertex="1" parent="1">
          <mxGeometry x="140" width="330" height="250" as="geometry" />
        </mxCell>
        <mxCell id="twXCrVw1hiwDpGXirVnP-6" value="Embedded system" style="rounded=1;whiteSpace=wrap;html=1;fontSize=16;fillColor=#f8cecc;strokeColor=#b85450;" vertex="1" parent="1">
          <mxGeometry x="40" y="120" width="120" height="80" as="geometry" />
        </mxCell>
        <mxCell id="twXCrVw1hiwDpGXirVnP-7" value="Remote &lt;br&gt;Server" style="rounded=1;whiteSpace=wrap;html=1;fontSize=16;fillColor=#d5e8d4;strokeColor=#82b366;" vertex="1" parent="1">
          <mxGeometry x="320" y="120" width="120" height="80" as="geometry" />
        </mxCell>
        <mxCell id="twXCrVw1hiwDpGXirVnP-9" value="" style="endArrow=classic;html=1;rounded=0;fontSize=12;startSize=8;endSize=8;curved=1;entryX=0;entryY=0.25;entryDx=0;entryDy=0;exitX=1;exitY=0.25;exitDx=0;exitDy=0;" edge="1" parent="1" source="twXCrVw1hiwDpGXirVnP-6" target="twXCrVw1hiwDpGXirVnP-7">
          <mxGeometry width="50" height="50" relative="1" as="geometry">
            <mxPoint x="170" y="70" as="sourcePoint" />
            <mxPoint x="280" y="80" as="targetPoint" />
            <Array as="points">
              <mxPoint x="240" y="80" />
            </Array>
          </mxGeometry>
        </mxCell>
        <mxCell id="twXCrVw1hiwDpGXirVnP-11" value="Recorded &lt;br&gt;patterns" style="edgeLabel;html=1;align=center;verticalAlign=middle;resizable=0;points=[];fontSize=16;labelBackgroundColor=#E6E6E6;labelBorderColor=default;" vertex="1" connectable="0" parent="twXCrVw1hiwDpGXirVnP-9">
          <mxGeometry x="0.2981" y="-7" relative="1" as="geometry">
            <mxPoint x="-20" y="6" as="offset" />
          </mxGeometry>
        </mxCell>
        <mxCell id="twXCrVw1hiwDpGXirVnP-10" value="&lt;font style=&quot;font-size: 16px;&quot;&gt;Trained &lt;br&gt;model&lt;/font&gt;" style="endArrow=classic;html=1;rounded=0;fontSize=12;startSize=8;endSize=8;curved=1;entryX=1;entryY=0.75;entryDx=0;entryDy=0;exitX=0;exitY=0.75;exitDx=0;exitDy=0;labelBackgroundColor=#E6E6E6;labelBorderColor=default;" edge="1" parent="1" source="twXCrVw1hiwDpGXirVnP-7" target="twXCrVw1hiwDpGXirVnP-6">
          <mxGeometry x="-0.18" y="-24" width="50" height="50" relative="1" as="geometry">
            <mxPoint x="270" y="190" as="sourcePoint" />
            <mxPoint x="320" y="140" as="targetPoint" />
            <Array as="points">
              <mxPoint x="240" y="240" />
            </Array>
            <mxPoint as="offset" />
          </mxGeometry>
        </mxCell>
        <mxCell id="twXCrVw1hiwDpGXirVnP-14" value="Record predefined patterns" style="text;html=1;strokeColor=none;fillColor=none;align=center;verticalAlign=middle;whiteSpace=wrap;rounded=0;fontSize=16;rotation=0;" vertex="1" parent="1">
          <mxGeometry x="160" y="30" width="200" height="20" as="geometry" />
        </mxCell>
        <mxCell id="twXCrVw1hiwDpGXirVnP-15" value="" style="curved=1;endArrow=classic;html=1;rounded=0;fontSize=12;startSize=8;endSize=8;entryX=0.75;entryY=0;entryDx=0;entryDy=0;exitX=0.5;exitY=1;exitDx=0;exitDy=0;" edge="1" parent="1">
          <mxGeometry width="50" height="50" relative="1" as="geometry">
            <mxPoint x="250" y="50" as="sourcePoint" />
            <mxPoint x="120" y="120" as="targetPoint" />
            <Array as="points">
              <mxPoint x="250" y="70" />
              <mxPoint x="220" y="80" />
              <mxPoint x="190" y="60" />
              <mxPoint x="160" y="70" />
            </Array>
          </mxGeometry>
        </mxCell>
      </root>
    </mxGraphModel>
  </diagram>
</mxfile>
